<svg width="24" height="24" viewBox="0 0 24 24" fill="none" xmlns="http://www.w3.org/2000/svg">
<path d="M9.00001 19.6458C9.73295 20.4762 10.8053 21 12 21C13.1947 21 14.2671 20.4762 15 19.6458M16 2C18.387 3.18623 20.1726 5.40103 20.777 8.06448M7.77698 2C5.39 3.18623 3.60437 5.40103 3 8.06448M17.9974 13.1809V10.0001C17.9974 6.67781 15.3223 4.00009 12 4.00009C8.67772 4.00009 5.96637 6.56365 5.96637 10.0001V13.1594C5.96637 13.6425 5.89106 14.1225 5.74335 14.5809L5.00488 16.8724C4.98466 16.9352 5.02982 17 5.09376 17H18.8632C18.9308 17 18.9788 16.9341 18.958 16.8697L18.2146 14.5627C18.0707 14.1162 17.9974 13.65 17.9974 13.1809Z" stroke="white" stroke-width="1.5" stroke-linecap="round"/>
</svg>
