<svg width="904" height="113" viewBox="0 0 904 113" fill="none" xmlns="http://www.w3.org/2000/svg">
<path d="M549.32 100H530.12V14.24H556.104L576.2 56.48L584.264 76.576H585.672L593.48 56.48L612.936 14.24H639.048V100H619.848V56.48L620.488 43.04H619.08L614.088 56.48L596.168 94.88H572.872L554.952 56.48L549.96 43.04H548.552L549.32 56.48V100ZM675.616 101.28C669.643 101.28 664.651 100.171 660.64 97.952C656.715 95.648 653.771 92.576 651.808 88.736C649.931 84.896 648.992 80.5867 648.992 75.808V35.872H668.192V69.408C668.192 74.528 669.429 78.2827 671.904 80.672C674.379 82.976 678.645 84.128 684.704 84.128C691.019 84.128 695.413 82.8907 697.888 80.416C700.448 77.856 701.728 73.8453 701.728 68.384L704.16 68.256L705.568 80.416H701.984C701.472 84 700.192 87.3707 698.144 90.528C696.181 93.6853 693.323 96.288 689.568 98.336C685.899 100.299 681.248 101.28 675.616 101.28ZM720.928 100H703.008V80.16L701.728 79.52V35.872H720.928V100ZM763.129 101.28C752.377 101.28 744.1 99.2747 738.297 95.264C732.494 91.168 729.593 85.408 729.593 77.984V77.6H748.793V78.752C748.793 81.6533 749.817 83.616 751.865 84.64C753.998 85.5787 757.796 86.048 763.257 86.048C768.377 86.048 771.748 85.6213 773.369 84.768C775.076 83.8293 775.929 82.4213 775.929 80.544C775.929 78.752 775.289 77.5147 774.009 76.832C772.729 76.064 770.212 75.424 766.457 74.912L748.409 72.736C742.009 72.0533 737.06 70.2613 733.561 67.36C730.148 64.4587 728.441 60.2773 728.441 54.816C728.441 51.0613 729.55 47.6907 731.769 44.704C733.988 41.632 737.401 39.2 742.009 37.408C746.702 35.5307 752.718 34.592 760.057 34.592C767.054 34.592 772.985 35.488 777.849 37.28C782.798 38.9867 786.553 41.5893 789.113 45.088C791.673 48.5867 792.953 52.9387 792.953 58.144V58.528H773.753V57.76C773.753 55.968 773.369 54.5173 772.601 53.408C771.918 52.2133 770.51 51.3173 768.377 50.72C766.329 50.1227 763.342 49.824 759.417 49.824C754.638 49.824 751.438 50.2933 749.817 51.232C748.196 52.0853 747.385 53.536 747.385 55.584C747.385 57.2053 748.025 58.4427 749.305 59.296C750.67 60.064 753.444 60.7467 757.625 61.344L771.321 63.008C779.854 63.9467 785.913 65.9093 789.497 68.896C793.081 71.8827 794.873 76.0213 794.873 81.312C794.873 85.3227 793.593 88.8213 791.033 91.808C788.473 94.7947 784.846 97.1413 780.153 98.848C775.46 100.469 769.785 101.28 763.129 101.28ZM821.82 100H802.62V35.872H821.82V100ZM821.82 29.344H802.62V14.24H821.82V29.344ZM866.046 101.28C858.793 101.28 852.435 99.9147 846.974 97.184C841.513 94.4533 837.289 90.6133 834.302 85.664C831.401 80.6293 829.95 74.7413 829.95 68C829.95 61.1733 831.401 55.2853 834.302 50.336C837.289 45.3013 841.513 41.4187 846.974 38.688C852.435 35.9573 858.793 34.592 866.046 34.592C872.958 34.592 879.017 35.744 884.222 38.048C889.427 40.352 893.481 43.5947 896.382 47.776C899.283 51.872 900.734 56.6933 900.734 62.24V64.032H881.662V63.008C881.662 58.912 880.254 56.0533 877.438 54.432C874.622 52.7253 870.697 51.872 865.662 51.872C859.945 51.872 855.721 53.0667 852.99 55.456C850.345 57.8453 849.022 62.0267 849.022 68C849.022 73.8027 850.345 77.9413 852.99 80.416C855.721 82.8053 859.945 84 865.662 84C870.697 84 874.622 83.1893 877.438 81.568C880.254 79.8613 881.662 76.96 881.662 72.864V71.84H900.734V73.632C900.734 79.1787 899.283 84.0427 896.382 88.224C893.481 92.32 889.427 95.52 884.222 97.824C879.017 100.128 872.958 101.28 866.046 101.28Z" fill="white"/>
<rect x="362.5" y="55.5" width="152" height="55.5" rx="14.5" stroke="white"/>
<path d="M404.833 100H394.789C390.037 100 386.311 98.839 383.611 96.517C380.911 94.195 379.561 90.469 379.561 85.339V51.562H391.711V83.962C391.711 86.014 392.143 87.391 393.007 88.093C393.925 88.741 395.437 89.065 397.543 89.065H404.833V100ZM404.833 69.463H373.162V59.419H404.833V69.463ZM454.906 100H442.756V78.778C442.756 75.376 441.946 73 440.326 71.65C438.76 70.246 436.06 69.544 432.226 69.544C429.526 69.544 427.393 69.922 425.827 70.678C424.261 71.434 423.154 72.568 422.506 74.08C421.858 75.538 421.534 77.401 421.534 79.669H419.752L419.914 71.812H422.182C422.614 69.49 423.451 67.33 424.693 65.332C425.935 63.334 427.69 61.714 429.958 60.472C432.28 59.23 435.169 58.609 438.625 58.609C442.243 58.609 445.267 59.338 447.697 60.796C450.127 62.254 451.936 64.225 453.124 66.709C454.312 69.193 454.906 72.001 454.906 75.133V100ZM421.534 100H409.384V45.73H421.534V100ZM482.583 100.81C478.101 100.81 474.132 100.054 470.676 98.542C467.22 97.03 464.547 94.708 462.657 91.576C460.767 88.444 459.822 84.502 459.822 79.75C459.822 75.43 460.767 71.704 462.657 68.572C464.547 65.386 467.166 62.929 470.514 61.201C473.916 59.473 477.858 58.609 482.34 58.609C486.768 58.609 490.629 59.365 493.923 60.877C497.271 62.389 499.863 64.63 501.699 67.6C503.535 70.516 504.453 74.08 504.453 78.292C504.453 78.994 504.426 79.642 504.372 80.236C504.318 80.83 504.237 81.478 504.129 82.18H467.679V75.781H495.543L492.789 79.75C492.789 79.21 492.789 78.697 492.789 78.211C492.789 77.725 492.789 77.239 492.789 76.753C492.789 73.675 491.952 71.461 490.278 70.111C488.604 68.761 485.877 68.086 482.097 68.086C477.993 68.086 475.131 68.896 473.511 70.516C471.891 72.082 471.081 74.593 471.081 78.049V81.127C471.081 84.583 471.891 87.121 473.511 88.741C475.131 90.307 478.02 91.09 482.178 91.09C485.742 91.09 488.253 90.631 489.711 89.713C491.169 88.795 491.898 87.472 491.898 85.744V84.934H504.048V85.825C504.048 88.741 503.157 91.333 501.375 93.601C499.593 95.869 497.082 97.651 493.842 98.947C490.656 100.189 486.903 100.81 482.583 100.81Z" fill="white"/>
<rect width="352" height="113" rx="25" fill="white"/>
<path d="M35.32 100H16.12V14.24H42.104L62.2 56.48L70.264 76.576H71.672L79.48 56.48L98.936 14.24H125.048V100H105.848V56.48L106.488 43.04H105.08L100.088 56.48L82.168 94.88H58.872L40.952 56.48L35.96 43.04H34.552L35.32 56.48V100ZM169.168 101.28C162.085 101.28 155.813 100.085 150.352 97.696C144.891 95.3067 140.667 91.6373 137.68 86.688C134.693 81.7387 133.2 75.5093 133.2 68C133.2 61.1733 134.693 55.2853 137.68 50.336C140.667 45.3013 144.805 41.4187 150.096 38.688C155.472 35.9573 161.701 34.592 168.784 34.592C175.781 34.592 181.883 35.7867 187.088 38.176C192.379 40.5653 196.475 44.1067 199.376 48.8C202.277 53.408 203.728 59.04 203.728 65.696C203.728 66.8053 203.685 67.8293 203.6 68.768C203.515 69.7067 203.387 70.7307 203.216 71.84H145.616V61.728H189.648L185.296 68C185.296 67.1467 185.296 66.336 185.296 65.568C185.296 64.8 185.296 64.032 185.296 63.264C185.296 58.4 183.973 54.9013 181.328 52.768C178.683 50.6347 174.373 49.568 168.4 49.568C161.915 49.568 157.392 50.848 154.832 53.408C152.272 55.8827 150.992 59.8507 150.992 65.312V70.176C150.992 75.6373 152.272 79.648 154.832 82.208C157.392 84.6827 161.957 85.92 168.528 85.92C174.16 85.92 178.128 85.1947 180.432 83.744C182.736 82.2933 183.888 80.2027 183.888 77.472V76.192H203.088V77.6C203.088 82.208 201.68 86.304 198.864 89.888C196.048 93.472 192.08 96.288 186.96 98.336C181.925 100.299 175.995 101.28 169.168 101.28ZM245.918 101.28C238.835 101.28 232.563 100.085 227.102 97.696C221.641 95.3067 217.417 91.6373 214.43 86.688C211.443 81.7387 209.95 75.5093 209.95 68C209.95 61.1733 211.443 55.2853 214.43 50.336C217.417 45.3013 221.555 41.4187 226.846 38.688C232.222 35.9573 238.451 34.592 245.534 34.592C252.531 34.592 258.633 35.7867 263.838 38.176C269.129 40.5653 273.225 44.1067 276.126 48.8C279.027 53.408 280.478 59.04 280.478 65.696C280.478 66.8053 280.435 67.8293 280.35 68.768C280.265 69.7067 280.137 70.7307 279.966 71.84H222.366V61.728H266.398L262.046 68C262.046 67.1467 262.046 66.336 262.046 65.568C262.046 64.8 262.046 64.032 262.046 63.264C262.046 58.4 260.723 54.9013 258.078 52.768C255.433 50.6347 251.123 49.568 245.15 49.568C238.665 49.568 234.142 50.848 231.582 53.408C229.022 55.8827 227.742 59.8507 227.742 65.312V70.176C227.742 75.6373 229.022 79.648 231.582 82.208C234.142 84.6827 238.707 85.92 245.278 85.92C250.91 85.92 254.878 85.1947 257.182 83.744C259.486 82.2933 260.638 80.2027 260.638 77.472V76.192H279.838V77.6C279.838 82.208 278.43 86.304 275.614 89.888C272.798 93.472 268.83 96.288 263.71 98.336C258.675 100.299 252.745 101.28 245.918 101.28ZM333.804 100H317.932C310.423 100 304.535 98.1653 300.268 94.496C296.001 90.8267 293.868 84.9387 293.868 76.832V23.456H313.068V74.656C313.068 77.8987 313.751 80.0747 315.116 81.184C316.567 82.208 318.956 82.72 322.284 82.72H333.804V100ZM333.804 51.744H283.756V35.872H333.804V51.744Z" fill="#0E1218"/>
</svg>
